<?xml version="1.0" encoding="UTF-8"?>
<svg xmlns="http://www.w3.org/2000/svg" xmlns:xlink="http://www.w3.org/1999/xlink" width="216pt" height="52.499999pt" viewBox="0 0 216 52.499999" version="1.2">
	<style type="text/css">
		:root{--primary-color:#514C58;}

		.circle{fill:var(--primary-color);}
		.square-outer{fill:var(--primary-color);}
		.square-inner{fill:var(--primary-color);}

		.letter-s{fill:var(--primary-color);}
		.letter-t{fill:var(--primary-color);}
		.letter-o{fill:var(--primary-color);}
		.letter-r{fill:var(--primary-color);}
		.letter-i{fill:var(--primary-color);}
		.letter-e{fill:var(--primary-color);}
	</style>

	<defs>
		<g>
			<symbol overflow="visible" id="letter-s">
				<path style="stroke:none;" d="M 2.8125 -22.125 C 2.8125 -24.757812 3.914062 -26.984375 6.125 -28.796875 C 8.34375 -30.617188 11.253906 -31.53125 14.859375 -31.53125 C 18.460938 -31.53125 21.328125 -30.640625 23.453125 -28.859375 C 25.578125 -27.078125 26.710938 -24.644531 26.859375 -21.5625 L 20.265625 -21.5625 C 20.160156 -23.101562 19.628906 -24.304688 18.671875 -25.171875 C 17.710938 -26.035156 16.367188 -26.46875 14.640625 -26.46875 C 12.910156 -26.46875 11.554688 -26.082031 10.578125 -25.3125 C 9.609375 -24.539062 9.125 -23.523438 9.125 -22.265625 C 9.125 -21.015625 9.742188 -20.03125 10.984375 -19.3125 C 12.222656 -18.601562 13.734375 -18.078125 15.515625 -17.734375 C 17.296875 -17.398438 19.078125 -16.988281 20.859375 -16.5 C 22.640625 -16.007812 24.148438 -15.113281 25.390625 -13.8125 C 26.628906 -12.519531 27.25 -10.785156 27.25 -8.609375 C 27.25 -5.910156 26.113281 -3.71875 23.84375 -2.03125 C 21.570312 -0.34375 18.648438 0.5 15.078125 0.5 C 11.515625 0.5 8.625 -0.359375 6.40625 -2.078125 C 4.195312 -3.804688 2.984375 -6.265625 2.765625 -9.453125 L 9.40625 -9.453125 C 9.519531 -7.921875 10.082031 -6.722656 11.09375 -5.859375 C 12.101562 -4.992188 13.476562 -4.5625 15.21875 -4.5625 C 16.96875 -4.5625 18.359375 -4.945312 19.390625 -5.71875 C 20.429688 -6.488281 20.953125 -7.507812 20.953125 -8.78125 C 20.953125 -10.0625 20.332031 -11.054688 19.09375 -11.765625 C 17.851562 -12.484375 16.335938 -13.019531 14.546875 -13.375 C 12.765625 -13.726562 10.984375 -14.140625 9.203125 -14.609375 C 7.421875 -15.078125 5.910156 -15.929688 4.671875 -17.171875 C 3.429688 -18.410156 2.8125 -20.0625 2.8125 -22.125 Z M 2.8125 -22.125 "/>
			</symbol>
			<symbol overflow="visible" id="letter-t">
				<path style="stroke:none;" d="M 19.265625 -25.796875 L 11.71875 -25.796875 L 11.71875 -8.609375 C 11.71875 -7.453125 11.988281 -6.617188 12.53125 -6.109375 C 13.070312 -5.597656 14 -5.34375 15.3125 -5.34375 L 19.265625 -5.34375 L 19.265625 0 L 14.1875 0 C 8.21875 0 5.234375 -2.867188 5.234375 -8.609375 L 5.234375 -25.796875 L 1.578125 -25.796875 L 1.578125 -31.03125 L 5.234375 -31.03125 L 5.234375 -38.75 L 11.71875 -38.75 L 11.71875 -31.03125 L 19.265625 -31.03125 Z M 19.265625 -25.796875 "/>
			</symbol>
			<symbol overflow="visible" id="letter-o">
				<path style="stroke:none;" d="M 24.375 -7.71875 C 26.257812 -9.59375 27.203125 -12.195312 27.203125 -15.53125 C 27.203125 -18.875 26.289062 -21.472656 24.46875 -23.328125 C 22.644531 -25.191406 20.4375 -26.125 17.84375 -26.125 C 15.257812 -26.125 13.082031 -25.191406 11.3125 -23.328125 C 9.550781 -21.472656 8.671875 -18.863281 8.671875 -15.5 C 8.671875 -12.144531 9.535156 -9.539062 11.265625 -7.6875 C 12.992188 -5.832031 15.140625 -4.90625 17.703125 -4.90625 C 20.273438 -4.90625 22.5 -5.84375 24.375 -7.71875 Z M 17.703125 0.5 C 13.179688 0.5 9.457031 -0.96875 6.53125 -3.90625 C 3.601562 -6.851562 2.140625 -10.71875 2.140625 -15.5 C 2.140625 -20.289062 3.648438 -24.160156 6.671875 -27.109375 C 9.691406 -30.054688 13.453125 -31.53125 17.953125 -31.53125 C 22.460938 -31.53125 26.226562 -30.054688 29.25 -27.109375 C 32.269531 -24.160156 33.78125 -20.300781 33.78125 -15.53125 C 33.78125 -10.769531 32.234375 -6.90625 29.140625 -3.9375 C 26.046875 -0.976562 22.234375 0.5 17.703125 0.5 Z M 17.703125 0.5 "/>
			</symbol>
			<symbol overflow="visible" id="letter-r">
				<path style="stroke:none;" d="M 10.640625 -31.03125 L 10.640625 -25.625 C 12.628906 -29.5625 15.726562 -31.53125 19.9375 -31.53125 L 19.9375 -24.890625 L 18.296875 -24.890625 C 15.785156 -24.890625 13.878906 -24.25 12.578125 -22.96875 C 11.285156 -21.695312 10.640625 -19.484375 10.640625 -16.328125 L 10.640625 0 L 4.21875 0 L 4.21875 -31.03125 Z M 10.640625 -31.03125 "/>
			</symbol>
			<symbol overflow="visible" id="letter-i">
				<path style="stroke:none;" d="M 11.546875 -39.25 C 11.546875 -38.082031 11.148438 -37.101562 10.359375 -36.3125 C 9.566406 -35.53125 8.597656 -35.140625 7.453125 -35.140625 C 6.316406 -35.140625 5.351562 -35.53125 4.5625 -36.3125 C 3.769531 -37.101562 3.375 -38.082031 3.375 -39.25 C 3.375 -40.414062 3.769531 -41.390625 4.5625 -42.171875 C 5.351562 -42.960938 6.316406 -43.359375 7.453125 -43.359375 C 8.597656 -43.359375 9.566406 -42.960938 10.359375 -42.171875 C 11.148438 -41.390625 11.546875 -40.414062 11.546875 -39.25 Z M 4.21875 0 L 4.21875 -31.03125 L 10.640625 -31.03125 L 10.640625 0 Z M 4.21875 0 "/>
			</symbol>
			<symbol overflow="visible" id="letter-e">
				<path style="stroke:none;" d="M 17.28125 0.5 C 12.78125 0.5 9.117188 -0.960938 6.296875 -3.890625 C 3.484375 -6.816406 2.078125 -10.703125 2.078125 -15.546875 C 2.078125 -20.390625 3.503906 -24.265625 6.359375 -27.171875 C 9.210938 -30.078125 12.898438 -31.53125 17.421875 -31.53125 C 21.953125 -31.53125 25.625 -30.128906 28.4375 -27.328125 C 31.25 -24.535156 32.65625 -20.890625 32.65625 -16.390625 C 32.65625 -15.296875 32.582031 -14.28125 32.4375 -13.34375 L 8.671875 -13.34375 C 8.816406 -10.75 9.6875 -8.691406 11.28125 -7.171875 C 12.882812 -5.660156 14.882812 -4.90625 17.28125 -4.90625 C 20.78125 -4.90625 23.242188 -6.347656 24.671875 -9.234375 L 31.59375 -9.234375 C 30.65625 -6.378906 28.945312 -4.039062 26.46875 -2.21875 C 23.988281 -0.40625 20.925781 0.5 17.28125 0.5 Z M 25.953125 -17.734375 C 25.921875 -20.285156 25.078125 -22.320312 23.421875 -23.84375 C 21.773438 -25.363281 19.769531 -26.125 17.40625 -26.125 C 15.039062 -26.125 13.054688 -25.363281 11.453125 -23.84375 C 9.859375 -22.320312 8.953125 -20.285156 8.734375 -17.734375 Z M 25.953125 -17.734375 "/>
			</symbol>
		</g>
	</defs>

	<g>
		<g class="circle">
			<path
				d="M 27 51.964844 C 20.0625 51.964844 13.53125 49.261719 8.628906 44.351562 C 3.71875 39.449219 1.019531 32.917969 1.019531 25.980469 C 1.019531 19.042969 3.71875 12.511719 8.628906 7.613281 C 13.53125 2.699219 20.0625 0 27 0 C 33.9375 0 40.46875 2.699219 45.371094 7.613281 C 50.28125 12.523438 52.980469 19.042969 52.980469 25.980469 C 52.980469 32.917969 50.28125 39.449219 45.371094 44.351562 C 40.46875 49.261719 33.9375 51.964844 27 51.964844 Z M 27 1.558594 C 20.480469 1.558594 14.34375 4.101562 9.730469 8.710938 C 5.121094 13.324219 2.578125 19.460938 2.578125 25.980469 C 2.578125 32.503906 5.121094 38.640625 9.730469 43.25 C 14.34375 47.863281 20.480469 50.40625 27 50.40625 C 33.523438 50.40625 39.660156 47.863281 44.269531 43.25 C 48.878906 38.640625 51.425781 32.503906 51.425781 25.980469 C 51.425781 19.460938 48.878906 13.324219 44.269531 8.710938 C 39.660156 4.101562 33.523438 1.558594 27 1.558594 Z M 27 1.558594 "
			/>
		</g>
		<path
			class="square-outer"
			d="M 8.753906 7.738281 L 8.753906 44.339844 L 45.359375 44.339844 L 45.359375 7.738281 Z M 44.195312 43.175781 L 9.898438 43.175781 L 9.898438 8.878906 L 44.195312 8.878906 Z M 44.195312 43.175781 "
		/>
		<path
			class="square-inner"
			d="M 27.226562 8.460938 L 9.648438 26.039062 L 27.226562 43.613281 L 44.800781 26.039062 Z M 27.226562 42.492188 L 10.757812 26.027344 L 27.226562 9.558594 L 43.695312 26.027344 Z M 27.226562 42.492188 "
		/>

		<g class="letter-s">
			<use xlink:href="#letter-s" x="68.131504" y="43.900486"/>
		</g>
		<g class="letter-t">
			<use xlink:href="#letter-t" x="96.342374" y="43.900486"/>
		</g>
		<g class="letter-o">
			<use xlink:href="#letter-o" x="115.431027" y="43.900486"/>
		</g>
		<g class="letter-r">
			<use xlink:href="#letter-r" x="149.498132" y="43.900486"/>
		</g>
		<g class="letter-i">
			<use xlink:href="#letter-i" x="169.262502" y="43.900486"/>
		</g>
		<g class="letter-e">
			<use xlink:href="#letter-e" x="182.269675" y="43.900486"/>
		</g>
	</g>
</svg>
