<?xml version="1.0" encoding="UTF-8"?>
<svg xmlns="http://www.w3.org/2000/svg" xmlns:xlink="http://www.w3.org/1999/xlink" width="52.5pt" height="52.499999pt" viewBox="0 0 52.5 52.499999" version="1.2">
	<style type="text/css">
		:root{--primary-color:#514C58;}

		.circle{fill:var(--primary-color);}
		.square-outer{fill:var(--primary-color);}
		.square-inner{fill:var(--primary-color);}
	</style>

	<g>
		<g class="circle">
			<path d="M 26.230469 52.457031 C 19.226562 52.457031 12.632812 49.730469 7.683594 44.773438 C 2.726562 39.824219 0 33.230469 0 26.230469 C 0 19.226562 2.726562 12.632812 7.683594 7.683594 C 12.632812 2.726562 19.226562 0 26.230469 0 C 33.230469 0 39.824219 2.726562 44.773438 7.683594 C 49.730469 12.644531 52.457031 19.226562 52.457031 26.230469 C 52.457031 33.230469 49.730469 39.824219 44.773438 44.773438 C 39.824219 49.730469 33.230469 52.457031 26.230469 52.457031 Z M 26.230469 1.574219 C 19.644531 1.574219 13.449219 4.140625 8.796875 8.796875 C 4.140625 13.449219 1.574219 19.644531 1.574219 26.230469 C 1.574219 32.8125 4.140625 39.007812 8.796875 43.664062 C 13.449219 48.316406 19.644531 50.886719 26.230469 50.886719 C 32.8125 50.886719 39.007812 48.316406 43.664062 43.664062 C 48.316406 39.007812 50.886719 32.8125 50.886719 26.230469 C 50.886719 19.644531 48.316406 13.449219 43.664062 8.796875 C 39.007812 4.140625 32.8125 1.574219 26.230469 1.574219 Z M 26.230469 1.574219 "/>
		</g>
		
		<path class="square-outer" d="M 7.808594 7.808594 L 7.808594 44.761719 L 44.761719 44.761719 L 44.761719 7.808594 Z M 43.585938 43.585938 L 8.960938 43.585938 L 8.960938 8.960938 L 43.585938 8.960938 Z M 43.585938 43.585938 "/>
		
		<path class="square-inner" d="M 26.457031 8.542969 L 8.710938 26.285156 L 26.457031 44.027344 L 44.199219 26.285156 Z M 26.457031 42.898438 L 9.832031 26.273438 L 26.457031 9.648438 L 43.082031 26.273438 Z M 26.457031 42.898438 "/>
	</g>
</svg>
