<?xml version="1.0" encoding="UTF-8"?>
<svg xmlns="http://www.w3.org/2000/svg" xmlns:xlink="http://www.w3.org/1999/xlink" width="146.25pt" height="44.999999pt" viewBox="0 0 146.25 44.999999" version="1.2">
  <style type="text/css">
    :root{--primary-color:#514C58;}

    .letter-s{fill:var(--primary-color);}
    .letter-t{fill:var(--primary-color);}
    .letter-o{fill:var(--primary-color);}
    .letter-r{fill:var(--primary-color);}
    .letter-i{fill:var(--primary-color);}
    .letter-e{fill:var(--primary-color);}
  </style>
  <defs>
    <g>
      <symbol overflow="visible" id="letter-s">
        <path style="stroke:none;" d="M 2.84375 -22.296875 C 2.84375 -24.941406 3.957031 -27.179688 6.1875 -29.015625 C 8.414062 -30.847656 11.34375 -31.765625 14.96875 -31.765625 C 18.601562 -31.765625 21.488281 -30.863281 23.625 -29.0625 C 25.757812 -27.269531 26.90625 -24.820312 27.0625 -21.71875 L 20.421875 -21.71875 C 20.304688 -23.269531 19.765625 -24.476562 18.796875 -25.34375 C 17.835938 -26.21875 16.488281 -26.65625 14.75 -26.65625 C 13.007812 -26.65625 11.644531 -26.265625 10.65625 -25.484375 C 9.675781 -24.710938 9.1875 -23.691406 9.1875 -22.421875 C 9.1875 -21.160156 9.8125 -20.171875 11.0625 -19.453125 C 12.3125 -18.734375 13.832031 -18.203125 15.625 -17.859375 C 17.414062 -17.523438 19.207031 -17.109375 21 -16.609375 C 22.800781 -16.117188 24.328125 -15.222656 25.578125 -13.921875 C 26.828125 -12.617188 27.453125 -10.867188 27.453125 -8.671875 C 27.453125 -5.953125 26.304688 -3.738281 24.015625 -2.03125 C 21.734375 -0.332031 18.796875 0.515625 15.203125 0.515625 C 11.609375 0.515625 8.695312 -0.351562 6.46875 -2.09375 C 4.238281 -3.832031 3.007812 -6.3125 2.78125 -9.53125 L 9.46875 -9.53125 C 9.582031 -7.976562 10.148438 -6.765625 11.171875 -5.890625 C 12.191406 -5.023438 13.582031 -4.59375 15.34375 -4.59375 C 17.101562 -4.59375 18.5 -4.976562 19.53125 -5.75 C 20.570312 -6.53125 21.09375 -7.5625 21.09375 -8.84375 C 21.09375 -10.132812 20.46875 -11.140625 19.21875 -11.859375 C 17.976562 -12.578125 16.457031 -13.113281 14.65625 -13.46875 C 12.863281 -13.832031 11.066406 -14.25 9.265625 -14.71875 C 7.472656 -15.1875 5.953125 -16.046875 4.703125 -17.296875 C 3.460938 -18.546875 2.84375 -20.210938 2.84375 -22.296875 Z M 2.84375 -22.296875 "/>
      </symbol>
      <symbol overflow="visible" id="letter-t">
        <path style="stroke:none;" d="M 19.390625 -25.984375 L 11.796875 -25.984375 L 11.796875 -8.671875 C 11.796875 -7.503906 12.066406 -6.664062 12.609375 -6.15625 C 13.160156 -5.644531 14.097656 -5.390625 15.421875 -5.390625 L 19.390625 -5.390625 L 19.390625 0 L 14.296875 0 C 8.285156 0 5.28125 -2.890625 5.28125 -8.671875 L 5.28125 -25.984375 L 1.59375 -25.984375 L 1.59375 -31.25 L 5.28125 -31.25 L 5.28125 -39.015625 L 11.796875 -39.015625 L 11.796875 -31.25 L 19.390625 -31.25 Z M 19.390625 -25.984375 "/>
      </symbol>
      <symbol overflow="visible" id="letter-o">
        <path style="stroke:none;" d="M 24.546875 -7.765625 C 26.441406 -9.660156 27.390625 -12.289062 27.390625 -15.65625 C 27.390625 -19.019531 26.472656 -21.632812 24.640625 -23.5 C 22.804688 -25.375 20.582031 -26.3125 17.96875 -26.3125 C 15.363281 -26.3125 13.171875 -25.375 11.390625 -23.5 C 9.617188 -21.632812 8.734375 -19.007812 8.734375 -15.625 C 8.734375 -12.238281 9.601562 -9.609375 11.34375 -7.734375 C 13.082031 -5.867188 15.242188 -4.9375 17.828125 -4.9375 C 20.421875 -4.9375 22.660156 -5.878906 24.546875 -7.765625 Z M 17.828125 0.515625 C 13.273438 0.515625 9.523438 -0.96875 6.578125 -3.9375 C 3.628906 -6.90625 2.15625 -10.800781 2.15625 -15.625 C 2.15625 -20.445312 3.675781 -24.34375 6.71875 -27.3125 C 9.757812 -30.28125 13.550781 -31.765625 18.09375 -31.765625 C 22.632812 -31.765625 26.425781 -30.28125 29.46875 -27.3125 C 32.507812 -24.34375 34.03125 -20.457031 34.03125 -15.65625 C 34.03125 -10.851562 32.46875 -6.957031 29.34375 -3.96875 C 26.226562 -0.976562 22.390625 0.515625 17.828125 0.515625 Z M 17.828125 0.515625 "/>
      </symbol>
      <symbol overflow="visible" id="letter-r">
        <path style="stroke:none;" d="M 10.71875 -31.25 L 10.71875 -25.8125 C 12.71875 -29.78125 15.835938 -31.765625 20.078125 -31.765625 L 20.078125 -25.0625 L 18.4375 -25.0625 C 15.90625 -25.0625 13.984375 -24.421875 12.671875 -23.140625 C 11.367188 -21.859375 10.71875 -19.628906 10.71875 -16.453125 L 10.71875 0 L 4.25 0 L 4.25 -31.25 Z M 10.71875 -31.25 "/>
      </symbol>
      <symbol overflow="visible" id="letter-i">
        <path style="stroke:none;" d="M 11.625 -39.53125 C 11.625 -38.363281 11.226562 -37.378906 10.4375 -36.578125 C 9.644531 -35.785156 8.671875 -35.390625 7.515625 -35.390625 C 6.359375 -35.390625 5.382812 -35.785156 4.59375 -36.578125 C 3.800781 -37.378906 3.40625 -38.363281 3.40625 -39.53125 C 3.40625 -40.707031 3.800781 -41.691406 4.59375 -42.484375 C 5.382812 -43.273438 6.359375 -43.671875 7.515625 -43.671875 C 8.671875 -43.671875 9.644531 -43.273438 10.4375 -42.484375 C 11.226562 -41.691406 11.625 -40.707031 11.625 -39.53125 Z M 4.25 0 L 4.25 -31.25 L 10.71875 -31.25 L 10.71875 0 Z M 4.25 0 "/>
      </symbol>
      <symbol overflow="visible" id="letter-e">
        <path style="stroke:none;" d="M 17.40625 0.515625 C 12.875 0.515625 9.1875 -0.957031 6.34375 -3.90625 C 3.507812 -6.863281 2.09375 -10.78125 2.09375 -15.65625 C 2.09375 -20.53125 3.53125 -24.429688 6.40625 -27.359375 C 9.28125 -30.296875 12.992188 -31.765625 17.546875 -31.765625 C 22.109375 -31.765625 25.804688 -30.351562 28.640625 -27.53125 C 31.472656 -24.71875 32.890625 -21.039062 32.890625 -16.5 C 32.890625 -15.40625 32.816406 -14.382812 32.671875 -13.4375 L 8.734375 -13.4375 C 8.890625 -10.832031 9.769531 -8.765625 11.375 -7.234375 C 12.976562 -5.703125 14.988281 -4.9375 17.40625 -4.9375 C 20.925781 -4.9375 23.40625 -6.390625 24.84375 -9.296875 L 31.8125 -9.296875 C 30.875 -6.421875 29.15625 -4.066406 26.65625 -2.234375 C 24.164062 -0.398438 21.082031 0.515625 17.40625 0.515625 Z M 26.140625 -17.859375 C 26.109375 -20.429688 25.257812 -22.484375 23.59375 -24.015625 C 21.925781 -25.546875 19.898438 -26.3125 17.515625 -26.3125 C 15.140625 -26.3125 13.144531 -25.546875 11.53125 -24.015625 C 9.925781 -22.484375 9.015625 -20.429688 8.796875 -17.859375 Z M 26.140625 -17.859375 "/>
      </symbol>
    </g>
  </defs>

  <g>
    <g class="letter-s">
      <use xlink:href="#letter-s" x="-2.529406" y="44.137242"/>
    </g>
    <g class="letter-t">
      <use xlink:href="#letter-t" x="25.885374" y="44.137242"/>
    </g>
    <g class="letter-o">
      <use xlink:href="#letter-o" x="45.112001" y="44.137242"/>
    </g>
    <g class="letter-r">
      <use xlink:href="#letter-r" x="79.425345" y="44.137242"/>
    </g>
    <g class="letter-i">
      <use xlink:href="#letter-i" x="99.332573" y="44.137242"/>
    </g>
    <g class="letter-e">
      <use xlink:href="#letter-e" x="112.433763" y="44.137242"/>
    </g>
  </g>
</svg>
